# MagicaVoxel @ Ephtracy

# material
mtllib ra_bifurcação.mtl
usemtl palette

# normals
vn -1 0 0
vn 1 0 0
vn 0 0 1
vn 0 0 -1
vn 0 -1 0
vn 0 1 0

# texcoords
vt 0.00976563 0.5
vt 0.697266 0.5
vt 0.728516 0.5
vt 0.759766 0.5
vt 0.791016 0.5
vt 0.822266 0.5
vt 0.853516 0.5
vt 0.876953 0.5
vt 0.880859 0.5
vt 0.884766 0.5
vt 0.908203 0.5
vt 0.912109 0.5
vt 0.916016 0.5
vt 0.939453 0.5
vt 0.943359 0.5
vt 0.947266 0.5
vt 0.970703 0.5
vt 0.974609 0.5
vt 0.978516 0.5

# verts
v -63 0 63
v -63 0 -63
v -63 1 62
v -63 1 -62
v -63 15 62
v -63 15 44
v -63 15 -43
v -63 15 -62
v -63 16 62
v -63 16 45
v -63 16 44
v -63 16 -43
v -63 16 -44
v -63 16 -62
v -63 19 62
v -63 19 45
v -63 19 -44
v -63 19 -62
v -63 20 63
v -63 20 44
v -63 20 -43
v -63 20 -63
v 43 16 63
v 43 16 62
v 43 16 44
v 43 19 62
v 43 19 44
v 43 20 63
v 43 20 44
v -43 16 63
v -43 16 62
v -43 16 44
v -43 19 62
v -43 19 44
v -43 20 63
v -43 20 44
v 63 0 63
v 63 0 -63
v 63 1 62
v 63 1 -62
v 63 15 62
v 63 15 44
v 63 15 -43
v 63 15 -62
v 63 16 62
v 63 16 45
v 63 16 44
v 63 16 -43
v 63 16 -44
v 63 16 -62
v 63 19 62
v 63 19 45
v 63 19 -44
v 63 19 -62
v 63 20 63
v 63 20 44
v 63 20 -43
v 63 20 -63
v -63 0 63
v -63 20 63
v -62 1 63
v -62 15 63
v -62 16 63
v -62 19 63
v -44 16 63
v -44 19 63
v -43 15 63
v -43 16 63
v -43 20 63
v 43 15 63
v 43 16 63
v 43 20 63
v 44 16 63
v 44 19 63
v 62 1 63
v 62 15 63
v 62 16 63
v 62 19 63
v 63 0 63
v 63 20 63
v -63 16 -43
v -63 20 -43
v -62 16 -43
v -62 19 -43
v -32 16 -43
v -32 19 -43
v -31 16 -43
v -31 19 -43
v -1 16 -43
v -1 19 -43
v 0 16 -43
v 0 19 -43
v 31 16 -43
v 31 19 -43
v 32 16 -43
v 32 19 -43
v 62 16 -43
v 62 19 -43
v 63 16 -43
v 63 20 -43
v -63 16 44
v -63 20 44
v -62 16 44
v -62 19 44
v -43 16 44
v -43 19 44
v -43 20 44
v 43 16 44
v 43 19 44
v 43 20 44
v 62 16 44
v 62 19 44
v 63 16 44
v 63 20 44
v -63 0 -63
v -63 20 -63
v -62 1 -63
v -62 15 -63
v -62 16 -63
v -62 19 -63
v -31 16 -63
v -31 19 -63
v -30 16 -63
v -30 19 -63
v -1 16 -63
v -1 19 -63
v 0 16 -63
v 0 19 -63
v 30 16 -63
v 30 19 -63
v 31 16 -63
v 31 19 -63
v 62 1 -63
v 62 15 -63
v 62 16 -63
v 62 19 -63
v 63 0 -63
v 63 20 -63
v -63 0 63
v 63 0 63
v -62 0 62
v 62 0 62
v -62 0 -62
v 62 0 -62
v -63 0 -63
v 63 0 -63
v -43 16 63
v 43 16 63
v -43 16 62
v -38 16 62
v -36 16 62
v -35 16 62
v -34 16 62
v -33 16 62
v -31 16 62
v -28 16 62
v -24 16 62
v -17 16 62
v -2 16 62
v 2 16 62
v 17 16 62
v 24 16 62
v 28 16 62
v 31 16 62
v 33 16 62
v 34 16 62
v 35 16 62
v 36 16 62
v 38 16 62
v 43 16 62
v -63 16 44
v -62 16 44
v -43 16 44
v 43 16 44
v 62 16 44
v 63 16 44
v -62 16 38
v -38 16 38
v 38 16 38
v 62 16 38
v -62 16 36
v -36 16 36
v 36 16 36
v 62 16 36
v -62 16 35
v -35 16 35
v 35 16 35
v 62 16 35
v -62 16 34
v -34 16 34
v 34 16 34
v 62 16 34
v -62 16 33
v -33 16 33
v 33 16 33
v 62 16 33
v -62 16 31
v -31 16 31
v 31 16 31
v 62 16 31
v -62 16 28
v -28 16 28
v 28 16 28
v 62 16 28
v -62 16 24
v -24 16 24
v 24 16 24
v 62 16 24
v -62 16 17
v -17 16 17
v 17 16 17
v 62 16 17
v -62 16 2
v -2 16 2
v 2 16 2
v 62 16 2
v -62 16 -2
v 62 16 -2
v -62 16 -17
v 62 16 -17
v -62 16 -24
v 62 16 -24
v -62 16 -28
v 62 16 -28
v -62 16 -31
v 62 16 -31
v -62 16 -33
v 62 16 -33
v -62 16 -34
v 62 16 -34
v -62 16 -35
v 62 16 -35
v -62 16 -36
v 62 16 -36
v -62 16 -38
v 62 16 -38
v -63 16 -43
v -62 16 -43
v -32 16 -43
v -31 16 -43
v -1 16 -43
v 0 16 -43
v 31 16 -43
v 32 16 -43
v 62 16 -43
v 63 16 -43
v -63 20 63
v -43 20 63
v 43 20 63
v 63 20 63
v -62 20 62
v -44 20 62
v 44 20 62
v 62 20 62
v -61 20 61
v -45 20 61
v 45 20 61
v 61 20 61
v -60 20 60
v -46 20 60
v 46 20 60
v 60 20 60
v -59 20 59
v -47 20 59
v 47 20 59
v 59 20 59
v -59 20 48
v -47 20 48
v 47 20 48
v 59 20 48
v -60 20 47
v -46 20 47
v 46 20 47
v 60 20 47
v -61 20 46
v -45 20 46
v 45 20 46
v 61 20 46
v -62 20 45
v -44 20 45
v 44 20 45
v 62 20 45
v -63 20 44
v -43 20 44
v 43 20 44
v 63 20 44
v -63 20 -43
v 63 20 -43
v -62 20 -44
v -32 20 -44
v -31 20 -44
v -1 20 -44
v 0 20 -44
v 31 20 -44
v 32 20 -44
v 62 20 -44
v -61 20 -45
v -33 20 -45
v -30 20 -45
v -2 20 -45
v 1 20 -45
v 30 20 -45
v 33 20 -45
v 61 20 -45
v -60 20 -46
v -34 20 -46
v -29 20 -46
v -3 20 -46
v 3 20 -46
v 29 20 -46
v 34 20 -46
v 60 20 -46
v -59 20 -47
v -35 20 -47
v -27 20 -47
v -4 20 -47
v 4 20 -47
v 27 20 -47
v 35 20 -47
v 59 20 -47
v -59 20 -59
v -35 20 -59
v -27 20 -59
v -4 20 -59
v 4 20 -59
v 27 20 -59
v 35 20 -59
v 59 20 -59
v -60 20 -60
v -34 20 -60
v -29 20 -60
v -3 20 -60
v 3 20 -60
v 29 20 -60
v 34 20 -60
v 60 20 -60
v -61 20 -61
v -33 20 -61
v -30 20 -61
v -2 20 -61
v 1 20 -61
v 30 20 -61
v 33 20 -61
v 61 20 -61
v -62 20 -62
v -32 20 -62
v -31 20 -62
v -1 20 -62
v 0 20 -62
v 31 20 -62
v 32 20 -62
v 62 20 -62
v -63 20 -63
v 63 20 -63

# faces
f 3/11/1 2/11/1 1/11/1
f 4/11/1 2/11/1 3/11/1
f 5/11/1 3/11/1 1/11/1
f 5/14/1 4/14/1 3/14/1
f 6/14/1 4/14/1 5/14/1
f 7/14/1 4/14/1 6/14/1
f 8/11/1 2/11/1 4/11/1
f 8/14/1 4/14/1 7/14/1
f 9/11/1 5/11/1 1/11/1
f 9/11/1 6/11/1 5/11/1
f 10/11/1 6/11/1 9/11/1
f 11/1/1 7/1/1 6/1/1
f 11/11/1 6/11/1 10/11/1
f 12/11/1 8/11/1 7/11/1
f 12/1/1 7/1/1 11/1/1
f 13/11/1 8/11/1 12/11/1
f 14/11/1 2/11/1 8/11/1
f 14/11/1 8/11/1 13/11/1
f 15/17/1 10/17/1 9/17/1
f 15/11/1 9/11/1 1/11/1
f 16/11/1 11/11/1 10/11/1
f 16/17/1 10/17/1 15/17/1
f 17/11/1 13/11/1 12/11/1
f 17/17/1 14/17/1 13/17/1
f 18/11/1 2/11/1 14/11/1
f 18/17/1 14/17/1 17/17/1
f 19/11/1 15/11/1 1/11/1
f 19/11/1 16/11/1 15/11/1
f 20/11/1 11/11/1 16/11/1
f 20/11/1 16/11/1 19/11/1
f 21/11/1 17/11/1 12/11/1
f 21/11/1 18/11/1 17/11/1
f 22/11/1 2/11/1 18/11/1
f 22/11/1 18/11/1 21/11/1
f 26/11/1 24/11/1 23/11/1
f 26/17/1 25/17/1 24/17/1
f 27/17/1 25/17/1 26/17/1
f 28/11/1 26/11/1 23/11/1
f 28/11/1 27/11/1 26/11/1
f 29/11/1 27/11/1 28/11/1
f 30/11/2 31/11/2 33/11/2
f 31/17/2 32/17/2 33/17/2
f 33/17/2 32/17/2 34/17/2
f 30/11/2 33/11/2 35/11/2
f 33/11/2 34/11/2 35/11/2
f 35/11/2 34/11/2 36/11/2
f 37/11/2 38/11/2 39/11/2
f 39/11/2 38/11/2 40/11/2
f 37/11/2 39/11/2 41/11/2
f 39/14/2 40/14/2 41/14/2
f 41/14/2 40/14/2 42/14/2
f 42/14/2 40/14/2 43/14/2
f 40/11/2 38/11/2 44/11/2
f 43/14/2 40/14/2 44/14/2
f 37/11/2 41/11/2 45/11/2
f 41/11/2 42/11/2 45/11/2
f 45/11/2 42/11/2 46/11/2
f 42/1/2 43/1/2 47/1/2
f 46/11/2 42/11/2 47/11/2
f 43/11/2 44/11/2 48/11/2
f 47/1/2 43/1/2 48/1/2
f 48/11/2 44/11/2 49/11/2
f 44/11/2 38/11/2 50/11/2
f 49/11/2 44/11/2 50/11/2
f 45/17/2 46/17/2 51/17/2
f 37/11/2 45/11/2 51/11/2
f 46/11/2 47/11/2 52/11/2
f 51/17/2 46/17/2 52/17/2
f 48/11/2 49/11/2 53/11/2
f 49/17/2 50/17/2 53/17/2
f 50/11/2 38/11/2 54/11/2
f 53/17/2 50/17/2 54/17/2
f 37/11/2 51/11/2 55/11/2
f 51/11/2 52/11/2 55/11/2
f 52/11/2 47/11/2 56/11/2
f 55/11/2 52/11/2 56/11/2
f 48/11/2 53/11/2 57/11/2
f 53/11/2 54/11/2 57/11/2
f 54/11/2 38/11/2 58/11/2
f 57/11/2 54/11/2 58/11/2
f 61/11/3 60/11/3 59/11/3
f 62/11/3 60/11/3 61/11/3
f 63/11/3 60/11/3 62/11/3
f 64/11/3 60/11/3 63/11/3
f 65/11/3 63/11/3 62/11/3
f 65/17/3 64/17/3 63/17/3
f 66/11/3 60/11/3 64/11/3
f 66/17/3 64/17/3 65/17/3
f 67/14/3 62/14/3 61/14/3
f 67/11/3 65/11/3 62/11/3
f 67/11/3 66/11/3 65/11/3
f 68/11/3 66/11/3 67/11/3
f 69/11/3 60/11/3 66/11/3
f 69/11/3 66/11/3 68/11/3
f 70/1/3 68/1/3 67/1/3
f 70/14/3 67/14/3 61/14/3
f 71/1/3 68/1/3 70/1/3
f 73/11/3 71/11/3 70/11/3
f 73/11/3 72/11/3 71/11/3
f 74/11/3 72/11/3 73/11/3
f 75/11/3 61/11/3 59/11/3
f 75/14/3 70/14/3 61/14/3
f 76/11/3 73/11/3 70/11/3
f 76/14/3 70/14/3 75/14/3
f 77/17/3 74/17/3 73/17/3
f 77/11/3 73/11/3 76/11/3
f 78/11/3 72/11/3 74/11/3
f 78/17/3 74/17/3 77/17/3
f 79/11/3 77/11/3 76/11/3
f 79/11/3 76/11/3 75/11/3
f 79/11/3 78/11/3 77/11/3
f 79/11/3 75/11/3 59/11/3
f 80/11/3 72/11/3 78/11/3
f 80/11/3 78/11/3 79/11/3
f 83/11/3 82/11/3 81/11/3
f 84/11/3 82/11/3 83/11/3
f 85/17/3 84/17/3 83/17/3
f 86/11/3 82/11/3 84/11/3
f 86/17/3 84/17/3 85/17/3
f 87/8/3 86/8/3 85/8/3
f 88/11/3 82/11/3 86/11/3
f 88/8/3 86/8/3 87/8/3
f 89/17/3 88/17/3 87/17/3
f 90/11/3 82/11/3 88/11/3
f 90/17/3 88/17/3 89/17/3
f 91/8/3 90/8/3 89/8/3
f 92/11/3 82/11/3 90/11/3
f 92/8/3 90/8/3 91/8/3
f 93/17/3 92/17/3 91/17/3
f 94/11/3 82/11/3 92/11/3
f 94/17/3 92/17/3 93/17/3
f 95/8/3 94/8/3 93/8/3
f 96/11/3 82/11/3 94/11/3
f 96/8/3 94/8/3 95/8/3
f 97/17/3 96/17/3 95/17/3
f 98/11/3 82/11/3 96/11/3
f 98/17/3 96/17/3 97/17/3
f 99/11/3 98/11/3 97/11/3
f 100/11/3 82/11/3 98/11/3
f 100/11/3 98/11/3 99/11/3
f 101/11/4 102/11/4 103/11/4
f 103/11/4 102/11/4 104/11/4
f 103/17/4 104/17/4 105/17/4
f 104/11/4 102/11/4 106/11/4
f 105/17/4 104/17/4 106/17/4
f 106/11/4 102/11/4 107/11/4
f 108/17/4 109/17/4 111/17/4
f 109/11/4 110/11/4 112/11/4
f 111/17/4 109/17/4 112/17/4
f 111/11/4 112/11/4 113/11/4
f 112/11/4 110/11/4 114/11/4
f 113/11/4 112/11/4 114/11/4
f 115/11/4 116/11/4 117/11/4
f 117/11/4 116/11/4 118/11/4
f 118/11/4 116/11/4 119/11/4
f 119/11/4 116/11/4 120/11/4
f 118/11/4 119/11/4 121/11/4
f 119/17/4 120/17/4 121/17/4
f 120/11/4 116/11/4 122/11/4
f 121/17/4 120/17/4 122/17/4
f 118/11/4 121/11/4 123/11/4
f 121/8/4 122/8/4 123/8/4
f 122/11/4 116/11/4 124/11/4
f 123/8/4 122/8/4 124/8/4
f 118/11/4 123/11/4 125/11/4
f 123/17/4 124/17/4 125/17/4
f 124/11/4 116/11/4 126/11/4
f 125/17/4 124/17/4 126/17/4
f 118/11/4 125/11/4 127/11/4
f 125/8/4 126/8/4 127/8/4
f 126/11/4 116/11/4 128/11/4
f 127/8/4 126/8/4 128/8/4
f 118/11/4 127/11/4 129/11/4
f 127/17/4 128/17/4 129/17/4
f 128/11/4 116/11/4 130/11/4
f 129/17/4 128/17/4 130/17/4
f 118/11/4 129/11/4 131/11/4
f 129/8/4 130/8/4 131/8/4
f 130/11/4 116/11/4 132/11/4
f 131/8/4 130/8/4 132/8/4
f 115/11/4 117/11/4 133/11/4
f 117/14/4 118/14/4 133/14/4
f 118/11/4 131/11/4 134/11/4
f 133/14/4 118/14/4 134/14/4
f 131/17/4 132/17/4 135/17/4
f 134/11/4 131/11/4 135/11/4
f 132/11/4 116/11/4 136/11/4
f 135/17/4 132/17/4 136/17/4
f 134/11/4 135/11/4 137/11/4
f 133/11/4 134/11/4 137/11/4
f 135/11/4 136/11/4 137/11/4
f 115/11/4 133/11/4 137/11/4
f 136/11/4 116/11/4 138/11/4
f 137/11/4 136/11/4 138/11/4
f 141/11/5 140/11/5 139/11/5
f 142/11/5 140/11/5 141/11/5
f 143/11/5 141/11/5 139/11/5
f 143/14/5 142/14/5 141/14/5
f 144/11/5 140/11/5 142/11/5
f 144/14/5 142/14/5 143/14/5
f 145/11/5 143/11/5 139/11/5
f 145/11/5 144/11/5 143/11/5
f 146/11/5 140/11/5 144/11/5
f 146/11/5 144/11/5 145/11/5
f 147/1/6 148/1/6 149/1/6
f 149/1/6 148/1/6 150/1/6
f 150/1/6 148/1/6 151/1/6
f 151/1/6 148/1/6 152/1/6
f 152/1/6 148/1/6 153/1/6
f 153/1/6 148/1/6 154/1/6
f 154/1/6 148/1/6 155/1/6
f 155/1/6 148/1/6 156/1/6
f 156/1/6 148/1/6 157/1/6
f 157/1/6 148/1/6 158/1/6
f 158/1/6 148/1/6 159/1/6
f 159/1/6 148/1/6 160/1/6
f 160/1/6 148/1/6 161/1/6
f 161/1/6 148/1/6 162/1/6
f 162/1/6 148/1/6 163/1/6
f 163/1/6 148/1/6 164/1/6
f 164/1/6 148/1/6 165/1/6
f 165/1/6 148/1/6 166/1/6
f 166/1/6 148/1/6 167/1/6
f 167/1/6 148/1/6 168/1/6
f 168/1/6 148/1/6 169/1/6
f 169/1/6 148/1/6 170/1/6
f 149/2/6 150/2/6 173/2/6
f 169/2/6 170/2/6 174/2/6
f 171/1/6 172/1/6 177/1/6
f 172/2/6 173/2/6 177/2/6
f 150/3/6 151/3/6 178/3/6
f 177/2/6 173/2/6 178/2/6
f 173/2/6 150/2/6 178/2/6
f 168/3/6 169/3/6 179/3/6
f 174/2/6 175/2/6 179/2/6
f 169/2/6 174/2/6 179/2/6
f 175/1/6 176/1/6 180/1/6
f 179/2/6 175/2/6 180/2/6
f 171/1/6 177/1/6 181/1/6
f 177/3/6 178/3/6 181/3/6
f 151/4/6 152/4/6 182/4/6
f 181/3/6 178/3/6 182/3/6
f 178/3/6 151/3/6 182/3/6
f 168/3/6 179/3/6 183/3/6
f 167/4/6 168/4/6 183/4/6
f 179/3/6 180/3/6 183/3/6
f 180/1/6 176/1/6 184/1/6
f 183/3/6 180/3/6 184/3/6
f 171/1/6 181/1/6 185/1/6
f 181/4/6 182/4/6 185/4/6
f 182/4/6 152/4/6 186/4/6
f 185/4/6 182/4/6 186/4/6
f 152/5/6 153/5/6 186/5/6
f 167/4/6 183/4/6 187/4/6
f 166/5/6 167/5/6 187/5/6
f 183/4/6 184/4/6 187/4/6
f 184/1/6 176/1/6 188/1/6
f 187/4/6 184/4/6 188/4/6
f 171/1/6 185/1/6 189/1/6
f 185/5/6 186/5/6 189/5/6
f 186/5/6 153/5/6 190/5/6
f 189/5/6 186/5/6 190/5/6
f 153/6/6 154/6/6 190/6/6
f 166/5/6 187/5/6 191/5/6
f 187/5/6 188/5/6 191/5/6
f 165/6/6 166/6/6 191/6/6
f 188/1/6 176/1/6 192/1/6
f 191/5/6 188/5/6 192/5/6
f 171/1/6 189/1/6 193/1/6
f 189/6/6 190/6/6 193/6/6
f 190/6/6 154/6/6 194/6/6
f 193/6/6 190/6/6 194/6/6
f 154/7/6 155/7/6 194/7/6
f 165/6/6 191/6/6 195/6/6
f 191/6/6 192/6/6 195/6/6
f 164/7/6 165/7/6 195/7/6
f 192/1/6 176/1/6 196/1/6
f 195/6/6 192/6/6 196/6/6
f 171/1/6 193/1/6 197/1/6
f 193/7/6 194/7/6 197/7/6
f 194/7/6 155/7/6 198/7/6
f 197/7/6 194/7/6 198/7/6
f 155/10/6 156/10/6 198/10/6
f 164/7/6 195/7/6 199/7/6
f 195/7/6 196/7/6 199/7/6
f 163/10/6 164/10/6 199/10/6
f 196/1/6 176/1/6 200/1/6
f 199/7/6 196/7/6 200/7/6
f 171/1/6 197/1/6 201/1/6
f 197/10/6 198/10/6 201/10/6
f 198/10/6 156/10/6 202/10/6
f 201/10/6 198/10/6 202/10/6
f 156/13/6 157/13/6 202/13/6
f 163/10/6 199/10/6 203/10/6
f 199/10/6 200/10/6 203/10/6
f 162/13/6 163/13/6 203/13/6
f 200/1/6 176/1/6 204/1/6
f 203/10/6 200/10/6 204/10/6
f 171/1/6 201/1/6 205/1/6
f 201/13/6 202/13/6 205/13/6
f 202/13/6 157/13/6 206/13/6
f 205/13/6 202/13/6 206/13/6
f 157/16/6 158/16/6 206/16/6
f 162/13/6 203/13/6 207/13/6
f 203/13/6 204/13/6 207/13/6
f 161/16/6 162/16/6 207/16/6
f 204/1/6 176/1/6 208/1/6
f 207/13/6 204/13/6 208/13/6
f 171/1/6 205/1/6 209/1/6
f 205/16/6 206/16/6 209/16/6
f 206/16/6 158/16/6 210/16/6
f 209/16/6 206/16/6 210/16/6
f 158/19/6 159/19/6 210/19/6
f 161/16/6 207/16/6 211/16/6
f 207/16/6 208/16/6 211/16/6
f 160/19/6 161/19/6 211/19/6
f 208/1/6 176/1/6 212/1/6
f 211/16/6 208/16/6 212/16/6
f 171/1/6 209/1/6 213/1/6
f 209/19/6 210/19/6 213/19/6
f 210/19/6 159/19/6 214/19/6
f 213/19/6 210/19/6 214/19/6
f 159/18/6 160/18/6 214/18/6
f 160/19/6 211/19/6 215/19/6
f 214/18/6 160/18/6 215/18/6
f 211/19/6 212/19/6 215/19/6
f 212/1/6 176/1/6 216/1/6
f 215/19/6 212/19/6 216/19/6
f 214/18/6 215/18/6 217/18/6
f 171/1/6 213/1/6 217/1/6
f 215/18/6 216/18/6 217/18/6
f 213/18/6 214/18/6 217/18/6
f 216/1/6 176/1/6 218/1/6
f 217/18/6 216/18/6 218/18/6
f 171/1/6 217/1/6 219/1/6
f 217/19/6 218/19/6 219/19/6
f 218/1/6 176/1/6 220/1/6
f 219/19/6 218/19/6 220/19/6
f 171/1/6 219/1/6 221/1/6
f 219/16/6 220/16/6 221/16/6
f 220/1/6 176/1/6 222/1/6
f 221/16/6 220/16/6 222/16/6
f 171/1/6 221/1/6 223/1/6
f 221/13/6 222/13/6 223/13/6
f 222/1/6 176/1/6 224/1/6
f 223/13/6 222/13/6 224/13/6
f 171/1/6 223/1/6 225/1/6
f 223/10/6 224/10/6 225/10/6
f 224/1/6 176/1/6 226/1/6
f 225/10/6 224/10/6 226/10/6
f 171/1/6 225/1/6 227/1/6
f 225/7/6 226/7/6 227/7/6
f 226/1/6 176/1/6 228/1/6
f 227/7/6 226/7/6 228/7/6
f 171/1/6 227/1/6 229/1/6
f 227/6/6 228/6/6 229/6/6
f 228/1/6 176/1/6 230/1/6
f 229/6/6 228/6/6 230/6/6
f 171/1/6 229/1/6 231/1/6
f 229/5/6 230/5/6 231/5/6
f 230/1/6 176/1/6 232/1/6
f 231/5/6 230/5/6 232/5/6
f 171/1/6 231/1/6 233/1/6
f 231/4/6 232/4/6 233/4/6
f 232/1/6 176/1/6 234/1/6
f 233/4/6 232/4/6 234/4/6
f 171/1/6 233/1/6 235/1/6
f 233/3/6 234/3/6 235/3/6
f 234/1/6 176/1/6 236/1/6
f 235/3/6 234/3/6 236/3/6
f 171/1/6 235/1/6 237/1/6
f 235/2/6 236/2/6 238/2/6
f 237/1/6 235/1/6 238/1/6
f 238/2/6 236/2/6 239/2/6
f 239/2/6 236/2/6 240/2/6
f 240/2/6 236/2/6 241/2/6
f 241/2/6 236/2/6 242/2/6
f 242/2/6 236/2/6 243/2/6
f 243/2/6 236/2/6 244/2/6
f 236/1/6 176/1/6 245/1/6
f 244/2/6 236/2/6 245/2/6
f 245/1/6 176/1/6 246/1/6
f 247/11/6 248/11/6 251/11/6
f 251/11/6 248/11/6 252/11/6
f 249/11/6 250/11/6 253/11/6
f 253/11/6 250/11/6 254/11/6
f 251/17/6 252/17/6 255/17/6
f 255/17/6 252/17/6 256/17/6
f 253/17/6 254/17/6 257/17/6
f 257/17/6 254/17/6 258/17/6
f 255/15/6 256/15/6 259/15/6
f 259/15/6 256/15/6 260/15/6
f 257/15/6 258/15/6 261/15/6
f 261/15/6 258/15/6 262/15/6
f 259/12/6 260/12/6 263/12/6
f 263/12/6 260/12/6 264/12/6
f 261/12/6 262/12/6 265/12/6
f 265/12/6 262/12/6 266/12/6
f 259/12/6 263/12/6 267/12/6
f 263/9/6 264/9/6 267/9/6
f 264/12/6 260/12/6 268/12/6
f 267/9/6 264/9/6 268/9/6
f 265/9/6 266/9/6 269/9/6
f 261/12/6 265/12/6 269/12/6
f 266/12/6 262/12/6 270/12/6
f 269/9/6 266/9/6 270/9/6
f 255/15/6 259/15/6 271/15/6
f 259/12/6 267/12/6 271/12/6
f 267/12/6 268/12/6 271/12/6
f 260/15/6 256/15/6 272/15/6
f 271/12/6 268/12/6 272/12/6
f 268/12/6 260/12/6 272/12/6
f 257/15/6 261/15/6 273/15/6
f 269/12/6 270/12/6 273/12/6
f 261/12/6 269/12/6 273/12/6
f 270/12/6 262/12/6 274/12/6
f 273/12/6 270/12/6 274/12/6
f 262/15/6 258/15/6 274/15/6
f 251/17/6 255/17/6 275/17/6
f 255/15/6 271/15/6 275/15/6
f 271/15/6 272/15/6 275/15/6
f 256/17/6 252/17/6 276/17/6
f 275/15/6 272/15/6 276/15/6
f 272/15/6 256/15/6 276/15/6
f 253/17/6 257/17/6 277/17/6
f 273/15/6 274/15/6 277/15/6
f 257/15/6 273/15/6 277/15/6
f 274/15/6 258/15/6 278/15/6
f 277/15/6 274/15/6 278/15/6
f 258/17/6 254/17/6 278/17/6
f 247/11/6 251/11/6 279/11/6
f 251/17/6 275/17/6 279/17/6
f 275/17/6 276/17/6 279/17/6
f 252/11/6 248/11/6 280/11/6
f 279/17/6 276/17/6 280/17/6
f 276/17/6 252/17/6 280/17/6
f 249/11/6 253/11/6 281/11/6
f 277/17/6 278/17/6 281/17/6
f 253/17/6 277/17/6 281/17/6
f 278/17/6 254/17/6 282/17/6
f 281/17/6 278/17/6 282/17/6
f 254/11/6 250/11/6 282/11/6
f 247/11/6 279/11/6 283/11/6
f 279/11/6 280/11/6 283/11/6
f 280/11/6 248/11/6 284/11/6
f 283/11/6 280/11/6 284/11/6
f 249/11/6 281/11/6 285/11/6
f 281/11/6 282/11/6 285/11/6
f 282/11/6 250/11/6 286/11/6
f 285/11/6 282/11/6 286/11/6
f 287/11/6 288/11/6 289/11/6
f 289/11/6 288/11/6 290/11/6
f 290/11/6 288/11/6 291/11/6
f 291/11/6 288/11/6 292/11/6
f 292/11/6 288/11/6 293/11/6
f 293/11/6 288/11/6 294/11/6
f 294/11/6 288/11/6 295/11/6
f 295/11/6 288/11/6 296/11/6
f 289/17/6 290/17/6 297/17/6
f 297/17/6 290/17/6 298/17/6
f 291/17/6 292/17/6 299/17/6
f 299/17/6 292/17/6 300/17/6
f 293/17/6 294/17/6 301/17/6
f 301/17/6 294/17/6 302/17/6
f 295/17/6 296/17/6 303/17/6
f 303/17/6 296/17/6 304/17/6
f 297/15/6 298/15/6 305/15/6
f 305/15/6 298/15/6 306/15/6
f 299/15/6 300/15/6 307/15/6
f 307/15/6 300/15/6 308/15/6
f 301/15/6 302/15/6 309/15/6
f 309/15/6 302/15/6 310/15/6
f 303/15/6 304/15/6 311/15/6
f 311/15/6 304/15/6 312/15/6
f 305/12/6 306/12/6 313/12/6
f 313/12/6 306/12/6 314/12/6
f 307/12/6 308/12/6 315/12/6
f 315/12/6 308/12/6 316/12/6
f 309/12/6 310/12/6 317/12/6
f 317/12/6 310/12/6 318/12/6
f 311/12/6 312/12/6 319/12/6
f 319/12/6 312/12/6 320/12/6
f 305/12/6 313/12/6 321/12/6
f 313/9/6 314/9/6 321/9/6
f 314/12/6 306/12/6 322/12/6
f 321/9/6 314/9/6 322/9/6
f 307/12/6 315/12/6 323/12/6
f 315/9/6 316/9/6 323/9/6
f 316/12/6 308/12/6 324/12/6
f 323/9/6 316/9/6 324/9/6
f 309/12/6 317/12/6 325/12/6
f 317/9/6 318/9/6 325/9/6
f 318/12/6 310/12/6 326/12/6
f 325/9/6 318/9/6 326/9/6
f 319/9/6 320/9/6 327/9/6
f 311/12/6 319/12/6 327/12/6
f 320/12/6 312/12/6 328/12/6
f 327/9/6 320/9/6 328/9/6
f 297/15/6 305/15/6 329/15/6
f 305/12/6 321/12/6 329/12/6
f 321/12/6 322/12/6 329/12/6
f 306/15/6 298/15/6 330/15/6
f 329/12/6 322/12/6 330/12/6
f 322/12/6 306/12/6 330/12/6
f 299/15/6 307/15/6 331/15/6
f 307/12/6 323/12/6 331/12/6
f 323/12/6 324/12/6 331/12/6
f 308/15/6 300/15/6 332/15/6
f 331/12/6 324/12/6 332/12/6
f 324/12/6 308/12/6 332/12/6
f 301/15/6 309/15/6 333/15/6
f 309/12/6 325/12/6 333/12/6
f 325/12/6 326/12/6 333/12/6
f 310/15/6 302/15/6 334/15/6
f 333/12/6 326/12/6 334/12/6
f 326/12/6 310/12/6 334/12/6
f 327/12/6 328/12/6 335/12/6
f 303/15/6 311/15/6 335/15/6
f 311/12/6 327/12/6 335/12/6
f 328/12/6 312/12/6 336/12/6
f 335/12/6 328/12/6 336/12/6
f 312/15/6 304/15/6 336/15/6
f 289/17/6 297/17/6 337/17/6
f 297/15/6 329/15/6 337/15/6
f 329/15/6 330/15/6 337/15/6
f 298/17/6 290/17/6 338/17/6
f 337/15/6 330/15/6 338/15/6
f 330/15/6 298/15/6 338/15/6
f 291/17/6 299/17/6 339/17/6
f 299/15/6 331/15/6 339/15/6
f 331/15/6 332/15/6 339/15/6
f 300/17/6 292/17/6 340/17/6
f 339/15/6 332/15/6 340/15/6
f 332/15/6 300/15/6 340/15/6
f 293/17/6 301/17/6 341/17/6
f 301/15/6 333/15/6 341/15/6
f 333/15/6 334/15/6 341/15/6
f 302/17/6 294/17/6 342/17/6
f 341/15/6 334/15/6 342/15/6
f 334/15/6 302/15/6 342/15/6
f 335/15/6 336/15/6 343/15/6
f 295/17/6 303/17/6 343/17/6
f 303/15/6 335/15/6 343/15/6
f 336/15/6 304/15/6 344/15/6
f 343/15/6 336/15/6 344/15/6
f 304/17/6 296/17/6 344/17/6
f 287/11/6 289/11/6 345/11/6
f 289/17/6 337/17/6 345/17/6
f 337/17/6 338/17/6 345/17/6
f 290/8/6 291/8/6 346/8/6
f 345/17/6 338/17/6 346/17/6
f 338/17/6 290/17/6 346/17/6
f 291/17/6 339/17/6 347/17/6
f 346/8/6 291/8/6 347/8/6
f 339/17/6 340/17/6 347/17/6
f 292/8/6 293/8/6 348/8/6
f 347/17/6 340/17/6 348/17/6
f 340/17/6 292/17/6 348/17/6
f 293/17/6 341/17/6 349/17/6
f 348/8/6 293/8/6 349/8/6
f 341/17/6 342/17/6 349/17/6
f 294/8/6 295/8/6 350/8/6
f 349/17/6 342/17/6 350/17/6
f 342/17/6 294/17/6 350/17/6
f 343/17/6 344/17/6 351/17/6
f 350/8/6 295/8/6 351/8/6
f 295/17/6 343/17/6 351/17/6
f 344/17/6 296/17/6 352/17/6
f 351/17/6 344/17/6 352/17/6
f 296/11/6 288/11/6 352/11/6
f 350/11/6 351/11/6 353/11/6
f 347/11/6 348/11/6 353/11/6
f 351/11/6 352/11/6 353/11/6
f 348/11/6 349/11/6 353/11/6
f 345/11/6 346/11/6 353/11/6
f 346/11/6 347/11/6 353/11/6
f 349/11/6 350/11/6 353/11/6
f 287/11/6 345/11/6 353/11/6
f 352/11/6 288/11/6 354/11/6
f 353/11/6 352/11/6 354/11/6
