# MagicaVoxel @ Ephtracy

# material
mtllib rua_normal.mtl
usemtl palette

# normals
vn -1 0 0
vn 1 0 0
vn 0 0 1
vn 0 0 -1
vn 0 -1 0
vn 0 1 0

# texcoords
vt 0.697266 0.5
vt 0.728516 0.5
vt 0.759766 0.5
vt 0.791016 0.5
vt 0.822266 0.5
vt 0.853516 0.5
vt 0.876953 0.5
vt 0.880859 0.5
vt 0.884766 0.5
vt 0.908203 0.5
vt 0.912109 0.5
vt 0.916016 0.5
vt 0.939453 0.5
vt 0.943359 0.5
vt 0.947266 0.5
vt 0.970703 0.5
vt 0.974609 0.5
vt 0.978516 0.5

# verts
v -63 0 63
v -63 0 -63
v -63 1 62
v -63 1 -62
v -63 15 62
v -63 15 -62
v -63 16 62
v -63 16 32
v -63 16 31
v -63 16 1
v -63 16 -0
v -63 16 -30
v -63 16 -31
v -63 16 -62
v -63 19 62
v -63 19 32
v -63 19 31
v -63 19 1
v -63 19 -0
v -63 19 -30
v -63 19 -31
v -63 19 -62
v -63 20 63
v -63 20 -63
v 43 16 63
v 43 16 62
v 43 16 32
v 43 16 31
v 43 16 1
v 43 16 -0
v 43 16 -30
v 43 16 -31
v 43 16 -62
v 43 16 -63
v 43 19 62
v 43 19 32
v 43 19 31
v 43 19 1
v 43 19 -0
v 43 19 -30
v 43 19 -31
v 43 19 -62
v 43 20 63
v 43 20 -63
v -43 16 63
v -43 16 62
v -43 16 32
v -43 16 31
v -43 16 1
v -43 16 -0
v -43 16 -30
v -43 16 -31
v -43 16 -62
v -43 16 -63
v -43 19 62
v -43 19 32
v -43 19 31
v -43 19 1
v -43 19 -0
v -43 19 -30
v -43 19 -31
v -43 19 -62
v -43 20 63
v -43 20 -63
v 63 0 63
v 63 0 -63
v 63 1 62
v 63 1 -62
v 63 15 62
v 63 15 -62
v 63 16 62
v 63 16 32
v 63 16 31
v 63 16 1
v 63 16 -0
v 63 16 -30
v 63 16 -31
v 63 16 -62
v 63 19 62
v 63 19 32
v 63 19 31
v 63 19 1
v 63 19 -0
v 63 19 -30
v 63 19 -31
v 63 19 -62
v 63 20 63
v 63 20 -63
v -63 0 63
v -63 20 63
v -62 1 63
v -62 15 63
v -62 16 63
v -62 19 63
v -44 16 63
v -44 19 63
v -43 15 63
v -43 16 63
v -43 20 63
v -38 15 63
v -38 16 63
v -36 15 63
v -36 16 63
v -35 15 63
v -35 16 63
v -34 15 63
v -34 16 63
v -33 15 63
v -33 16 63
v -31 15 63
v -31 16 63
v -28 15 63
v -28 16 63
v -24 15 63
v -24 16 63
v -17 15 63
v -17 16 63
v -2 15 63
v -2 16 63
v 2 15 63
v 2 16 63
v 17 15 63
v 17 16 63
v 24 15 63
v 24 16 63
v 28 15 63
v 28 16 63
v 31 15 63
v 31 16 63
v 33 15 63
v 33 16 63
v 34 15 63
v 34 16 63
v 35 15 63
v 35 16 63
v 36 15 63
v 36 16 63
v 38 15 63
v 38 16 63
v 43 15 63
v 43 16 63
v 43 20 63
v 44 16 63
v 44 19 63
v 62 1 63
v 62 15 63
v 62 16 63
v 62 19 63
v 63 0 63
v 63 20 63
v -63 0 -63
v -63 20 -63
v -62 1 -63
v -62 15 -63
v -62 16 -63
v -62 19 -63
v -44 16 -63
v -44 19 -63
v -43 15 -63
v -43 16 -63
v -43 20 -63
v -38 15 -63
v -38 16 -63
v -36 15 -63
v -36 16 -63
v -35 15 -63
v -35 16 -63
v -34 15 -63
v -34 16 -63
v -33 15 -63
v -33 16 -63
v -31 15 -63
v -31 16 -63
v -28 15 -63
v -28 16 -63
v -24 15 -63
v -24 16 -63
v -17 15 -63
v -17 16 -63
v -2 15 -63
v -2 16 -63
v 2 15 -63
v 2 16 -63
v 17 15 -63
v 17 16 -63
v 24 15 -63
v 24 16 -63
v 28 15 -63
v 28 16 -63
v 31 15 -63
v 31 16 -63
v 33 15 -63
v 33 16 -63
v 34 15 -63
v 34 16 -63
v 35 15 -63
v 35 16 -63
v 36 15 -63
v 36 16 -63
v 38 15 -63
v 38 16 -63
v 43 15 -63
v 43 16 -63
v 43 20 -63
v 44 16 -63
v 44 19 -63
v 62 1 -63
v 62 15 -63
v 62 16 -63
v 62 19 -63
v 63 0 -63
v 63 20 -63
v -63 0 63
v 63 0 63
v -62 0 62
v 62 0 62
v -62 0 -62
v 62 0 -62
v -63 0 -63
v 63 0 -63
v -43 16 63
v -38 16 63
v -36 16 63
v -35 16 63
v -34 16 63
v -33 16 63
v -31 16 63
v -28 16 63
v -24 16 63
v -17 16 63
v -2 16 63
v 2 16 63
v 17 16 63
v 24 16 63
v 28 16 63
v 31 16 63
v 33 16 63
v 34 16 63
v 35 16 63
v 36 16 63
v 38 16 63
v 43 16 63
v -43 16 62
v 43 16 62
v -43 16 32
v 43 16 32
v -43 16 31
v 43 16 31
v -43 16 1
v 43 16 1
v -43 16 -0
v 43 16 -0
v -43 16 -30
v 43 16 -30
v -43 16 -31
v 43 16 -31
v -43 16 -62
v 43 16 -62
v -43 16 -63
v -38 16 -63
v -36 16 -63
v -35 16 -63
v -34 16 -63
v -33 16 -63
v -31 16 -63
v -28 16 -63
v -24 16 -63
v -17 16 -63
v -2 16 -63
v 2 16 -63
v 17 16 -63
v 24 16 -63
v 28 16 -63
v 31 16 -63
v 33 16 -63
v 34 16 -63
v 35 16 -63
v 36 16 -63
v 38 16 -63
v 43 16 -63
v -63 20 63
v -43 20 63
v 43 20 63
v 63 20 63
v -62 20 62
v -44 20 62
v 44 20 62
v 62 20 62
v -61 20 61
v -45 20 61
v 45 20 61
v 61 20 61
v -60 20 60
v -46 20 60
v 46 20 60
v 60 20 60
v -59 20 59
v -47 20 59
v 47 20 59
v 59 20 59
v -59 20 36
v -47 20 36
v 47 20 36
v 59 20 36
v -60 20 34
v -46 20 34
v 46 20 34
v 60 20 34
v -61 20 33
v -45 20 33
v 45 20 33
v 61 20 33
v -62 20 32
v -44 20 32
v 44 20 32
v 62 20 32
v -62 20 31
v -44 20 31
v 44 20 31
v 62 20 31
v -61 20 30
v -45 20 30
v 45 20 30
v 61 20 30
v -60 20 29
v -46 20 29
v 46 20 29
v 60 20 29
v -59 20 28
v -47 20 28
v 47 20 28
v 59 20 28
v -59 20 4
v -47 20 4
v 47 20 4
v 59 20 4
v -60 20 3
v -46 20 3
v 46 20 3
v 60 20 3
v -61 20 2
v -45 20 2
v 45 20 2
v 61 20 2
v -62 20 1
v -44 20 1
v 44 20 1
v 62 20 1
v -62 20 -0
v -44 20 -0
v 44 20 -0
v 62 20 -0
v -61 20 -1
v -45 20 -1
v 45 20 -1
v 61 20 -1
v -60 20 -2
v -46 20 -2
v 46 20 -2
v 60 20 -2
v -59 20 -3
v -47 20 -3
v 47 20 -3
v 59 20 -3
v -59 20 -27
v -47 20 -27
v 47 20 -27
v 59 20 -27
v -60 20 -28
v -46 20 -28
v 46 20 -28
v 60 20 -28
v -61 20 -29
v -45 20 -29
v 45 20 -29
v 61 20 -29
v -62 20 -30
v -44 20 -30
v 44 20 -30
v 62 20 -30
v -62 20 -31
v -44 20 -31
v 44 20 -31
v 62 20 -31
v -61 20 -32
v -45 20 -32
v 45 20 -32
v 61 20 -32
v -60 20 -34
v -46 20 -34
v 46 20 -34
v 60 20 -34
v -59 20 -35
v -47 20 -35
v 47 20 -35
v 59 20 -35
v -59 20 -59
v -47 20 -59
v 47 20 -59
v 59 20 -59
v -60 20 -60
v -46 20 -60
v 46 20 -60
v 60 20 -60
v -61 20 -61
v -45 20 -61
v 45 20 -61
v 61 20 -61
v -62 20 -62
v -44 20 -62
v 44 20 -62
v 62 20 -62
v -63 20 -63
v -43 20 -63
v 43 20 -63
v 63 20 -63

# faces
f 3/10/1 2/10/1 1/10/1
f 4/10/1 2/10/1 3/10/1
f 5/10/1 3/10/1 1/10/1
f 5/13/1 4/13/1 3/13/1
f 6/10/1 2/10/1 4/10/1
f 6/13/1 4/13/1 5/13/1
f 7/10/1 5/10/1 1/10/1
f 7/10/1 6/10/1 5/10/1
f 8/10/1 6/10/1 7/10/1
f 9/10/1 6/10/1 8/10/1
f 10/10/1 6/10/1 9/10/1
f 11/10/1 6/10/1 10/10/1
f 12/10/1 6/10/1 11/10/1
f 13/10/1 6/10/1 12/10/1
f 14/10/1 2/10/1 6/10/1
f 14/10/1 6/10/1 13/10/1
f 15/10/1 7/10/1 1/10/1
f 15/16/1 8/16/1 7/16/1
f 16/7/1 9/7/1 8/7/1
f 16/16/1 8/16/1 15/16/1
f 17/16/1 10/16/1 9/16/1
f 17/7/1 9/7/1 16/7/1
f 18/7/1 11/7/1 10/7/1
f 18/16/1 10/16/1 17/16/1
f 19/16/1 12/16/1 11/16/1
f 19/7/1 11/7/1 18/7/1
f 20/7/1 13/7/1 12/7/1
f 20/16/1 12/16/1 19/16/1
f 21/16/1 14/16/1 13/16/1
f 21/7/1 13/7/1 20/7/1
f 22/10/1 2/10/1 14/10/1
f 22/16/1 14/16/1 21/16/1
f 23/10/1 19/10/1 18/10/1
f 23/10/1 21/10/1 20/10/1
f 23/10/1 22/10/1 21/10/1
f 23/10/1 18/10/1 17/10/1
f 23/10/1 17/10/1 16/10/1
f 23/10/1 16/10/1 15/10/1
f 23/10/1 15/10/1 1/10/1
f 23/10/1 20/10/1 19/10/1
f 24/10/1 2/10/1 22/10/1
f 24/10/1 22/10/1 23/10/1
f 35/10/1 26/10/1 25/10/1
f 35/16/1 27/16/1 26/16/1
f 36/7/1 28/7/1 27/7/1
f 36/16/1 27/16/1 35/16/1
f 37/16/1 29/16/1 28/16/1
f 37/7/1 28/7/1 36/7/1
f 38/7/1 30/7/1 29/7/1
f 38/16/1 29/16/1 37/16/1
f 39/16/1 31/16/1 30/16/1
f 39/7/1 30/7/1 38/7/1
f 40/7/1 32/7/1 31/7/1
f 40/16/1 31/16/1 39/16/1
f 41/16/1 33/16/1 32/16/1
f 41/7/1 32/7/1 40/7/1
f 42/10/1 34/10/1 33/10/1
f 42/16/1 33/16/1 41/16/1
f 43/10/1 41/10/1 40/10/1
f 43/10/1 40/10/1 39/10/1
f 43/10/1 42/10/1 41/10/1
f 43/10/1 39/10/1 38/10/1
f 43/10/1 38/10/1 37/10/1
f 43/10/1 37/10/1 36/10/1
f 43/10/1 36/10/1 35/10/1
f 43/10/1 35/10/1 25/10/1
f 44/10/1 34/10/1 42/10/1
f 44/10/1 42/10/1 43/10/1
f 45/10/2 46/10/2 55/10/2
f 46/16/2 47/16/2 55/16/2
f 47/7/2 48/7/2 56/7/2
f 55/16/2 47/16/2 56/16/2
f 48/16/2 49/16/2 57/16/2
f 56/7/2 48/7/2 57/7/2
f 49/7/2 50/7/2 58/7/2
f 57/16/2 49/16/2 58/16/2
f 50/16/2 51/16/2 59/16/2
f 58/7/2 50/7/2 59/7/2
f 51/7/2 52/7/2 60/7/2
f 59/16/2 51/16/2 60/16/2
f 52/16/2 53/16/2 61/16/2
f 60/7/2 52/7/2 61/7/2
f 53/10/2 54/10/2 62/10/2
f 61/16/2 53/16/2 62/16/2
f 60/10/2 61/10/2 63/10/2
f 59/10/2 60/10/2 63/10/2
f 61/10/2 62/10/2 63/10/2
f 58/10/2 59/10/2 63/10/2
f 57/10/2 58/10/2 63/10/2
f 56/10/2 57/10/2 63/10/2
f 55/10/2 56/10/2 63/10/2
f 45/10/2 55/10/2 63/10/2
f 62/10/2 54/10/2 64/10/2
f 63/10/2 62/10/2 64/10/2
f 65/10/2 66/10/2 67/10/2
f 67/10/2 66/10/2 68/10/2
f 65/10/2 67/10/2 69/10/2
f 67/13/2 68/13/2 69/13/2
f 68/10/2 66/10/2 70/10/2
f 69/13/2 68/13/2 70/13/2
f 65/10/2 69/10/2 71/10/2
f 69/10/2 70/10/2 71/10/2
f 71/10/2 70/10/2 72/10/2
f 72/10/2 70/10/2 73/10/2
f 73/10/2 70/10/2 74/10/2
f 74/10/2 70/10/2 75/10/2
f 75/10/2 70/10/2 76/10/2
f 76/10/2 70/10/2 77/10/2
f 70/10/2 66/10/2 78/10/2
f 77/10/2 70/10/2 78/10/2
f 65/10/2 71/10/2 79/10/2
f 71/16/2 72/16/2 79/16/2
f 72/7/2 73/7/2 80/7/2
f 79/16/2 72/16/2 80/16/2
f 73/16/2 74/16/2 81/16/2
f 80/7/2 73/7/2 81/7/2
f 74/7/2 75/7/2 82/7/2
f 81/16/2 74/16/2 82/16/2
f 75/16/2 76/16/2 83/16/2
f 82/7/2 75/7/2 83/7/2
f 76/7/2 77/7/2 84/7/2
f 83/16/2 76/16/2 84/16/2
f 77/16/2 78/16/2 85/16/2
f 84/7/2 77/7/2 85/7/2
f 78/10/2 66/10/2 86/10/2
f 85/16/2 78/16/2 86/16/2
f 82/10/2 83/10/2 87/10/2
f 84/10/2 85/10/2 87/10/2
f 85/10/2 86/10/2 87/10/2
f 81/10/2 82/10/2 87/10/2
f 80/10/2 81/10/2 87/10/2
f 79/10/2 80/10/2 87/10/2
f 65/10/2 79/10/2 87/10/2
f 83/10/2 84/10/2 87/10/2
f 86/10/2 66/10/2 88/10/2
f 87/10/2 86/10/2 88/10/2
f 91/10/3 90/10/3 89/10/3
f 92/10/3 90/10/3 91/10/3
f 93/10/3 90/10/3 92/10/3
f 94/10/3 90/10/3 93/10/3
f 95/10/3 93/10/3 92/10/3
f 95/16/3 94/16/3 93/16/3
f 96/10/3 90/10/3 94/10/3
f 96/16/3 94/16/3 95/16/3
f 97/13/3 92/13/3 91/13/3
f 97/10/3 95/10/3 92/10/3
f 97/10/3 96/10/3 95/10/3
f 98/10/3 96/10/3 97/10/3
f 99/10/3 90/10/3 96/10/3
f 99/10/3 96/10/3 98/10/3
f 100/1/3 98/1/3 97/1/3
f 100/13/3 97/13/3 91/13/3
f 101/1/3 98/1/3 100/1/3
f 102/13/3 100/13/3 91/13/3
f 102/2/3 101/2/3 100/2/3
f 103/2/3 101/2/3 102/2/3
f 104/13/3 102/13/3 91/13/3
f 104/3/3 103/3/3 102/3/3
f 105/3/3 103/3/3 104/3/3
f 106/13/3 104/13/3 91/13/3
f 106/4/3 105/4/3 104/4/3
f 107/4/3 105/4/3 106/4/3
f 108/13/3 106/13/3 91/13/3
f 108/5/3 107/5/3 106/5/3
f 109/5/3 107/5/3 108/5/3
f 110/13/3 108/13/3 91/13/3
f 110/6/3 109/6/3 108/6/3
f 111/6/3 109/6/3 110/6/3
f 112/13/3 110/13/3 91/13/3
f 112/9/3 111/9/3 110/9/3
f 113/9/3 111/9/3 112/9/3
f 114/13/3 112/13/3 91/13/3
f 114/12/3 113/12/3 112/12/3
f 115/12/3 113/12/3 114/12/3
f 116/13/3 114/13/3 91/13/3
f 116/15/3 115/15/3 114/15/3
f 117/15/3 115/15/3 116/15/3
f 118/13/3 116/13/3 91/13/3
f 118/18/3 117/18/3 116/18/3
f 119/18/3 117/18/3 118/18/3
f 120/13/3 118/13/3 91/13/3
f 120/17/3 119/17/3 118/17/3
f 121/17/3 119/17/3 120/17/3
f 122/13/3 120/13/3 91/13/3
f 122/18/3 121/18/3 120/18/3
f 123/18/3 121/18/3 122/18/3
f 124/13/3 122/13/3 91/13/3
f 124/15/3 123/15/3 122/15/3
f 125/15/3 123/15/3 124/15/3
f 126/13/3 124/13/3 91/13/3
f 126/12/3 125/12/3 124/12/3
f 127/12/3 125/12/3 126/12/3
f 128/13/3 126/13/3 91/13/3
f 128/9/3 127/9/3 126/9/3
f 129/9/3 127/9/3 128/9/3
f 130/13/3 128/13/3 91/13/3
f 130/6/3 129/6/3 128/6/3
f 131/6/3 129/6/3 130/6/3
f 132/13/3 130/13/3 91/13/3
f 132/5/3 131/5/3 130/5/3
f 133/5/3 131/5/3 132/5/3
f 134/13/3 132/13/3 91/13/3
f 134/4/3 133/4/3 132/4/3
f 135/4/3 133/4/3 134/4/3
f 136/13/3 134/13/3 91/13/3
f 136/3/3 135/3/3 134/3/3
f 137/3/3 135/3/3 136/3/3
f 138/13/3 136/13/3 91/13/3
f 138/2/3 137/2/3 136/2/3
f 139/2/3 137/2/3 138/2/3
f 140/13/3 138/13/3 91/13/3
f 140/1/3 139/1/3 138/1/3
f 141/1/3 139/1/3 140/1/3
f 143/10/3 141/10/3 140/10/3
f 143/10/3 142/10/3 141/10/3
f 144/10/3 142/10/3 143/10/3
f 145/10/3 91/10/3 89/10/3
f 145/13/3 140/13/3 91/13/3
f 146/10/3 143/10/3 140/10/3
f 146/13/3 140/13/3 145/13/3
f 147/16/3 144/16/3 143/16/3
f 147/10/3 143/10/3 146/10/3
f 148/10/3 142/10/3 144/10/3
f 148/16/3 144/16/3 147/16/3
f 149/10/3 147/10/3 146/10/3
f 149/10/3 146/10/3 145/10/3
f 149/10/3 148/10/3 147/10/3
f 149/10/3 145/10/3 89/10/3
f 150/10/3 142/10/3 148/10/3
f 150/10/3 148/10/3 149/10/3
f 151/10/4 152/10/4 153/10/4
f 153/10/4 152/10/4 154/10/4
f 154/10/4 152/10/4 155/10/4
f 155/10/4 152/10/4 156/10/4
f 154/10/4 155/10/4 157/10/4
f 155/16/4 156/16/4 157/16/4
f 156/10/4 152/10/4 158/10/4
f 157/16/4 156/16/4 158/16/4
f 153/13/4 154/13/4 159/13/4
f 154/10/4 157/10/4 159/10/4
f 157/10/4 158/10/4 159/10/4
f 159/10/4 158/10/4 160/10/4
f 158/10/4 152/10/4 161/10/4
f 160/10/4 158/10/4 161/10/4
f 159/1/4 160/1/4 162/1/4
f 153/13/4 159/13/4 162/13/4
f 162/1/4 160/1/4 163/1/4
f 153/13/4 162/13/4 164/13/4
f 162/2/4 163/2/4 164/2/4
f 164/2/4 163/2/4 165/2/4
f 153/13/4 164/13/4 166/13/4
f 164/3/4 165/3/4 166/3/4
f 166/3/4 165/3/4 167/3/4
f 153/13/4 166/13/4 168/13/4
f 166/4/4 167/4/4 168/4/4
f 168/4/4 167/4/4 169/4/4
f 153/13/4 168/13/4 170/13/4
f 168/5/4 169/5/4 170/5/4
f 170/5/4 169/5/4 171/5/4
f 153/13/4 170/13/4 172/13/4
f 170/6/4 171/6/4 172/6/4
f 172/6/4 171/6/4 173/6/4
f 153/13/4 172/13/4 174/13/4
f 172/9/4 173/9/4 174/9/4
f 174/9/4 173/9/4 175/9/4
f 153/13/4 174/13/4 176/13/4
f 174/12/4 175/12/4 176/12/4
f 176/12/4 175/12/4 177/12/4
f 153/13/4 176/13/4 178/13/4
f 176/15/4 177/15/4 178/15/4
f 178/15/4 177/15/4 179/15/4
f 153/13/4 178/13/4 180/13/4
f 178/18/4 179/18/4 180/18/4
f 180/18/4 179/18/4 181/18/4
f 153/13/4 180/13/4 182/13/4
f 180/17/4 181/17/4 182/17/4
f 182/17/4 181/17/4 183/17/4
f 153/13/4 182/13/4 184/13/4
f 182/18/4 183/18/4 184/18/4
f 184/18/4 183/18/4 185/18/4
f 153/13/4 184/13/4 186/13/4
f 184/15/4 185/15/4 186/15/4
f 186/15/4 185/15/4 187/15/4
f 153/13/4 186/13/4 188/13/4
f 186/12/4 187/12/4 188/12/4
f 188/12/4 187/12/4 189/12/4
f 153/13/4 188/13/4 190/13/4
f 188/9/4 189/9/4 190/9/4
f 190/9/4 189/9/4 191/9/4
f 153/13/4 190/13/4 192/13/4
f 190/6/4 191/6/4 192/6/4
f 192/6/4 191/6/4 193/6/4
f 153/13/4 192/13/4 194/13/4
f 192/5/4 193/5/4 194/5/4
f 194/5/4 193/5/4 195/5/4
f 153/13/4 194/13/4 196/13/4
f 194/4/4 195/4/4 196/4/4
f 196/4/4 195/4/4 197/4/4
f 153/13/4 196/13/4 198/13/4
f 196/3/4 197/3/4 198/3/4
f 198/3/4 197/3/4 199/3/4
f 153/13/4 198/13/4 200/13/4
f 198/2/4 199/2/4 200/2/4
f 200/2/4 199/2/4 201/2/4
f 153/13/4 200/13/4 202/13/4
f 200/1/4 201/1/4 202/1/4
f 202/1/4 201/1/4 203/1/4
f 202/10/4 203/10/4 205/10/4
f 203/10/4 204/10/4 205/10/4
f 205/10/4 204/10/4 206/10/4
f 151/10/4 153/10/4 207/10/4
f 153/13/4 202/13/4 207/13/4
f 202/10/4 205/10/4 208/10/4
f 207/13/4 202/13/4 208/13/4
f 205/16/4 206/16/4 209/16/4
f 208/10/4 205/10/4 209/10/4
f 206/10/4 204/10/4 210/10/4
f 209/16/4 206/16/4 210/16/4
f 208/10/4 209/10/4 211/10/4
f 207/10/4 208/10/4 211/10/4
f 209/10/4 210/10/4 211/10/4
f 151/10/4 207/10/4 211/10/4
f 210/10/4 204/10/4 212/10/4
f 211/10/4 210/10/4 212/10/4
f 215/10/5 214/10/5 213/10/5
f 216/10/5 214/10/5 215/10/5
f 217/10/5 215/10/5 213/10/5
f 217/13/5 216/13/5 215/13/5
f 218/10/5 214/10/5 216/10/5
f 218/13/5 216/13/5 217/13/5
f 219/10/5 217/10/5 213/10/5
f 219/10/5 218/10/5 217/10/5
f 220/10/5 214/10/5 218/10/5
f 220/10/5 218/10/5 219/10/5
f 221/1/6 222/1/6 243/1/6
f 241/1/6 242/1/6 244/1/6
f 243/1/6 222/1/6 245/1/6
f 241/1/6 244/1/6 246/1/6
f 245/1/6 222/1/6 247/1/6
f 241/1/6 246/1/6 248/1/6
f 247/1/6 222/1/6 249/1/6
f 241/1/6 248/1/6 250/1/6
f 249/1/6 222/1/6 251/1/6
f 241/1/6 250/1/6 252/1/6
f 251/1/6 222/1/6 253/1/6
f 241/1/6 252/1/6 254/1/6
f 253/1/6 222/1/6 255/1/6
f 241/1/6 254/1/6 256/1/6
f 255/1/6 222/1/6 257/1/6
f 241/1/6 256/1/6 258/1/6
f 257/1/6 222/1/6 259/1/6
f 222/2/6 223/2/6 260/2/6
f 259/1/6 222/1/6 260/1/6
f 223/3/6 224/3/6 261/3/6
f 260/2/6 223/2/6 261/2/6
f 224/4/6 225/4/6 262/4/6
f 261/3/6 224/3/6 262/3/6
f 225/5/6 226/5/6 263/5/6
f 262/4/6 225/4/6 263/4/6
f 226/6/6 227/6/6 264/6/6
f 263/5/6 226/5/6 264/5/6
f 227/9/6 228/9/6 265/9/6
f 264/6/6 227/6/6 265/6/6
f 228/12/6 229/12/6 266/12/6
f 265/9/6 228/9/6 266/9/6
f 229/15/6 230/15/6 267/15/6
f 266/12/6 229/12/6 267/12/6
f 230/18/6 231/18/6 268/18/6
f 267/15/6 230/15/6 268/15/6
f 231/17/6 232/17/6 269/17/6
f 268/18/6 231/18/6 269/18/6
f 232/18/6 233/18/6 270/18/6
f 269/17/6 232/17/6 270/17/6
f 233/15/6 234/15/6 271/15/6
f 270/18/6 233/18/6 271/18/6
f 234/12/6 235/12/6 272/12/6
f 271/15/6 234/15/6 272/15/6
f 235/9/6 236/9/6 273/9/6
f 272/12/6 235/12/6 273/12/6
f 236/6/6 237/6/6 274/6/6
f 273/9/6 236/9/6 274/9/6
f 237/5/6 238/5/6 275/5/6
f 274/6/6 237/6/6 275/6/6
f 238/4/6 239/4/6 276/4/6
f 275/5/6 238/5/6 276/5/6
f 239/3/6 240/3/6 277/3/6
f 276/4/6 239/4/6 277/4/6
f 240/2/6 241/2/6 278/2/6
f 277/3/6 240/3/6 278/3/6
f 241/1/6 258/1/6 279/1/6
f 278/2/6 241/2/6 279/2/6
f 279/1/6 258/1/6 280/1/6
f 281/10/6 282/10/6 285/10/6
f 285/10/6 282/10/6 286/10/6
f 283/10/6 284/10/6 287/10/6
f 287/10/6 284/10/6 288/10/6
f 285/16/6 286/16/6 289/16/6
f 289/16/6 286/16/6 290/16/6
f 287/16/6 288/16/6 291/16/6
f 291/16/6 288/16/6 292/16/6
f 289/14/6 290/14/6 293/14/6
f 293/14/6 290/14/6 294/14/6
f 291/14/6 292/14/6 295/14/6
f 295/14/6 292/14/6 296/14/6
f 293/11/6 294/11/6 297/11/6
f 297/11/6 294/11/6 298/11/6
f 295/11/6 296/11/6 299/11/6
f 299/11/6 296/11/6 300/11/6
f 293/11/6 297/11/6 301/11/6
f 297/8/6 298/8/6 301/8/6
f 298/11/6 294/11/6 302/11/6
f 301/8/6 298/8/6 302/8/6
f 299/8/6 300/8/6 303/8/6
f 295/11/6 299/11/6 303/11/6
f 300/11/6 296/11/6 304/11/6
f 303/8/6 300/8/6 304/8/6
f 289/14/6 293/14/6 305/14/6
f 293/11/6 301/11/6 305/11/6
f 301/11/6 302/11/6 305/11/6
f 294/14/6 290/14/6 306/14/6
f 305/11/6 302/11/6 306/11/6
f 302/11/6 294/11/6 306/11/6
f 291/14/6 295/14/6 307/14/6
f 303/11/6 304/11/6 307/11/6
f 295/11/6 303/11/6 307/11/6
f 304/11/6 296/11/6 308/11/6
f 307/11/6 304/11/6 308/11/6
f 296/14/6 292/14/6 308/14/6
f 285/16/6 289/16/6 309/16/6
f 289/14/6 305/14/6 309/14/6
f 305/14/6 306/14/6 309/14/6
f 290/16/6 286/16/6 310/16/6
f 309/14/6 306/14/6 310/14/6
f 306/14/6 290/14/6 310/14/6
f 287/16/6 291/16/6 311/16/6
f 307/14/6 308/14/6 311/14/6
f 291/14/6 307/14/6 311/14/6
f 308/14/6 292/14/6 312/14/6
f 311/14/6 308/14/6 312/14/6
f 292/16/6 288/16/6 312/16/6
f 281/10/6 285/10/6 313/10/6
f 285/16/6 309/16/6 313/16/6
f 309/16/6 310/16/6 313/16/6
f 286/10/6 282/10/6 314/10/6
f 313/16/6 310/16/6 314/16/6
f 310/16/6 286/16/6 314/16/6
f 283/10/6 287/10/6 315/10/6
f 311/16/6 312/16/6 315/16/6
f 287/16/6 311/16/6 315/16/6
f 312/16/6 288/16/6 316/16/6
f 315/16/6 312/16/6 316/16/6
f 288/10/6 284/10/6 316/10/6
f 281/10/6 313/10/6 317/10/6
f 313/7/6 314/7/6 317/7/6
f 314/10/6 282/10/6 318/10/6
f 317/7/6 314/7/6 318/7/6
f 283/10/6 315/10/6 319/10/6
f 315/7/6 316/7/6 319/7/6
f 316/10/6 284/10/6 320/10/6
f 319/7/6 316/7/6 320/7/6
f 317/16/6 318/16/6 321/16/6
f 321/16/6 318/16/6 322/16/6
f 319/16/6 320/16/6 323/16/6
f 323/16/6 320/16/6 324/16/6
f 321/14/6 322/14/6 325/14/6
f 325/14/6 322/14/6 326/14/6
f 323/14/6 324/14/6 327/14/6
f 327/14/6 324/14/6 328/14/6
f 325/11/6 326/11/6 329/11/6
f 329/11/6 326/11/6 330/11/6
f 327/11/6 328/11/6 331/11/6
f 331/11/6 328/11/6 332/11/6
f 325/11/6 329/11/6 333/11/6
f 329/8/6 330/8/6 333/8/6
f 330/11/6 326/11/6 334/11/6
f 333/8/6 330/8/6 334/8/6
f 331/8/6 332/8/6 335/8/6
f 327/11/6 331/11/6 335/11/6
f 332/11/6 328/11/6 336/11/6
f 335/8/6 332/8/6 336/8/6
f 321/14/6 325/14/6 337/14/6
f 325/11/6 333/11/6 337/11/6
f 333/11/6 334/11/6 337/11/6
f 326/14/6 322/14/6 338/14/6
f 337/11/6 334/11/6 338/11/6
f 334/11/6 326/11/6 338/11/6
f 323/14/6 327/14/6 339/14/6
f 335/11/6 336/11/6 339/11/6
f 327/11/6 335/11/6 339/11/6
f 336/11/6 328/11/6 340/11/6
f 339/11/6 336/11/6 340/11/6
f 328/14/6 324/14/6 340/14/6
f 317/16/6 321/16/6 341/16/6
f 321/14/6 337/14/6 341/14/6
f 337/14/6 338/14/6 341/14/6
f 322/16/6 318/16/6 342/16/6
f 341/14/6 338/14/6 342/14/6
f 338/14/6 322/14/6 342/14/6
f 319/16/6 323/16/6 343/16/6
f 339/14/6 340/14/6 343/14/6
f 323/14/6 339/14/6 343/14/6
f 340/14/6 324/14/6 344/14/6
f 343/14/6 340/14/6 344/14/6
f 324/16/6 320/16/6 344/16/6
f 281/10/6 317/10/6 345/10/6
f 317/16/6 341/16/6 345/16/6
f 341/16/6 342/16/6 345/16/6
f 318/10/6 282/10/6 346/10/6
f 345/16/6 342/16/6 346/16/6
f 342/16/6 318/16/6 346/16/6
f 283/10/6 319/10/6 347/10/6
f 343/16/6 344/16/6 347/16/6
f 319/16/6 343/16/6 347/16/6
f 320/10/6 284/10/6 348/10/6
f 347/16/6 344/16/6 348/16/6
f 344/16/6 320/16/6 348/16/6
f 281/10/6 345/10/6 349/10/6
f 345/7/6 346/7/6 349/7/6
f 346/10/6 282/10/6 350/10/6
f 349/7/6 346/7/6 350/7/6
f 283/10/6 347/10/6 351/10/6
f 347/7/6 348/7/6 351/7/6
f 348/10/6 284/10/6 352/10/6
f 351/7/6 348/7/6 352/7/6
f 349/16/6 350/16/6 353/16/6
f 353/16/6 350/16/6 354/16/6
f 351/16/6 352/16/6 355/16/6
f 355/16/6 352/16/6 356/16/6
f 353/14/6 354/14/6 357/14/6
f 357/14/6 354/14/6 358/14/6
f 355/14/6 356/14/6 359/14/6
f 359/14/6 356/14/6 360/14/6
f 357/11/6 358/11/6 361/11/6
f 361/11/6 358/11/6 362/11/6
f 359/11/6 360/11/6 363/11/6
f 363/11/6 360/11/6 364/11/6
f 357/11/6 361/11/6 365/11/6
f 361/8/6 362/8/6 365/8/6
f 362/11/6 358/11/6 366/11/6
f 365/8/6 362/8/6 366/8/6
f 363/8/6 364/8/6 367/8/6
f 359/11/6 363/11/6 367/11/6
f 364/11/6 360/11/6 368/11/6
f 367/8/6 364/8/6 368/8/6
f 353/14/6 357/14/6 369/14/6
f 357/11/6 365/11/6 369/11/6
f 365/11/6 366/11/6 369/11/6
f 358/14/6 354/14/6 370/14/6
f 369/11/6 366/11/6 370/11/6
f 366/11/6 358/11/6 370/11/6
f 355/14/6 359/14/6 371/14/6
f 367/11/6 368/11/6 371/11/6
f 359/11/6 367/11/6 371/11/6
f 368/11/6 360/11/6 372/11/6
f 371/11/6 368/11/6 372/11/6
f 360/14/6 356/14/6 372/14/6
f 349/16/6 353/16/6 373/16/6
f 353/14/6 369/14/6 373/14/6
f 369/14/6 370/14/6 373/14/6
f 354/16/6 350/16/6 374/16/6
f 373/14/6 370/14/6 374/14/6
f 370/14/6 354/14/6 374/14/6
f 351/16/6 355/16/6 375/16/6
f 371/14/6 372/14/6 375/14/6
f 355/14/6 371/14/6 375/14/6
f 372/14/6 356/14/6 376/14/6
f 375/14/6 372/14/6 376/14/6
f 356/16/6 352/16/6 376/16/6
f 281/10/6 349/10/6 377/10/6
f 349/16/6 373/16/6 377/16/6
f 373/16/6 374/16/6 377/16/6
f 350/10/6 282/10/6 378/10/6
f 377/16/6 374/16/6 378/16/6
f 374/16/6 350/16/6 378/16/6
f 283/10/6 351/10/6 379/10/6
f 375/16/6 376/16/6 379/16/6
f 351/16/6 375/16/6 379/16/6
f 376/16/6 352/16/6 380/16/6
f 379/16/6 376/16/6 380/16/6
f 352/10/6 284/10/6 380/10/6
f 281/10/6 377/10/6 381/10/6
f 377/7/6 378/7/6 381/7/6
f 378/10/6 282/10/6 382/10/6
f 381/7/6 378/7/6 382/7/6
f 283/10/6 379/10/6 383/10/6
f 379/7/6 380/7/6 383/7/6
f 380/10/6 284/10/6 384/10/6
f 383/7/6 380/7/6 384/7/6
f 381/16/6 382/16/6 385/16/6
f 385/16/6 382/16/6 386/16/6
f 383/16/6 384/16/6 387/16/6
f 387/16/6 384/16/6 388/16/6
f 385/14/6 386/14/6 389/14/6
f 389/14/6 386/14/6 390/14/6
f 387/14/6 388/14/6 391/14/6
f 391/14/6 388/14/6 392/14/6
f 389/11/6 390/11/6 393/11/6
f 393/11/6 390/11/6 394/11/6
f 391/11/6 392/11/6 395/11/6
f 395/11/6 392/11/6 396/11/6
f 389/11/6 393/11/6 397/11/6
f 393/8/6 394/8/6 397/8/6
f 394/11/6 390/11/6 398/11/6
f 397/8/6 394/8/6 398/8/6
f 395/8/6 396/8/6 399/8/6
f 391/11/6 395/11/6 399/11/6
f 396/11/6 392/11/6 400/11/6
f 399/8/6 396/8/6 400/8/6
f 385/14/6 389/14/6 401/14/6
f 389/11/6 397/11/6 401/11/6
f 397/11/6 398/11/6 401/11/6
f 390/14/6 386/14/6 402/14/6
f 401/11/6 398/11/6 402/11/6
f 398/11/6 390/11/6 402/11/6
f 387/14/6 391/14/6 403/14/6
f 399/11/6 400/11/6 403/11/6
f 391/11/6 399/11/6 403/11/6
f 400/11/6 392/11/6 404/11/6
f 403/11/6 400/11/6 404/11/6
f 392/14/6 388/14/6 404/14/6
f 381/16/6 385/16/6 405/16/6
f 385/14/6 401/14/6 405/14/6
f 401/14/6 402/14/6 405/14/6
f 386/16/6 382/16/6 406/16/6
f 405/14/6 402/14/6 406/14/6
f 402/14/6 386/14/6 406/14/6
f 383/16/6 387/16/6 407/16/6
f 403/14/6 404/14/6 407/14/6
f 387/14/6 403/14/6 407/14/6
f 404/14/6 388/14/6 408/14/6
f 407/14/6 404/14/6 408/14/6
f 388/16/6 384/16/6 408/16/6
f 281/10/6 381/10/6 409/10/6
f 381/16/6 405/16/6 409/16/6
f 405/16/6 406/16/6 409/16/6
f 382/10/6 282/10/6 410/10/6
f 409/16/6 406/16/6 410/16/6
f 406/16/6 382/16/6 410/16/6
f 283/10/6 383/10/6 411/10/6
f 407/16/6 408/16/6 411/16/6
f 383/16/6 407/16/6 411/16/6
f 408/16/6 384/16/6 412/16/6
f 411/16/6 408/16/6 412/16/6
f 384/10/6 284/10/6 412/10/6
f 281/10/6 409/10/6 413/10/6
f 409/10/6 410/10/6 413/10/6
f 410/10/6 282/10/6 414/10/6
f 413/10/6 410/10/6 414/10/6
f 283/10/6 411/10/6 415/10/6
f 411/10/6 412/10/6 415/10/6
f 412/10/6 284/10/6 416/10/6
f 415/10/6 412/10/6 416/10/6
